inDegrees=yes
name=ik_Xsens_quaternion
DataType=double
version=3
OpenSimVersion=4.4-2022-07-23-0e9fedc
endheader
time	pelvis_tilt	pelvis_list	pelvis_rotation	pelvis_tx	pelvis_ty	pelvis_tz	hip_flexion_r	hip_adduction_r	hip_rotation_r	knee_angle_r	knee_angle_r_beta	ankle_angle_r	subtalar_angle_r	mtp_angle_r	hip_flexion_l	hip_adduction_l	hip_rotation_l	knee_angle_l	knee_angle_l_beta	ankle_angle_l	subtalar_angle_l	mtp_angle_l	lumbar_extension	lumbar_bending	lumbar_rotation	arm_flex_r	arm_add_r	arm_rot_r	elbow_flex_r	pro_sup_r	wrist_flex_r	wrist_dev_r	arm_flex_l	arm_add_l	arm_rot_l	elbow_flex_l	pro_sup_l	wrist_flex_l	wrist_dev_l
0	0	0	0	0	0.9399999999999999	0	0	0	0	0	0	0	0	0	0	0	0	0	0	0	0	0	0	0	0	0	0	0	0	0	0	0	0	0	0	0	0	0	0
0.01666666666666667	-3.500683902402687	2.831819418048159	-2.740536161634142	0	0.9399999999999999	0	44.60085570241262	-10.05202013499786	0	60.19525118054339	1.050605327165486	-5.015364990425849	0	0	44.60085570241262	-10.05202013499786	0	60.19525118054339	1.050605327165486	-5.015364990425849	0	0	2.59881102601121	-4.308562898830313	1.312417476485002	0	-13.2167933250275	0	75.00820601233937	44.96290464829756	0	0	0.9309884891045852	-1.597815808833355	-1.5337229261328	0.3821181916035588	44.96290464829756	0	0
0.03333333333333333	-3.501772490625144	2.826932235433958	-2.7136551589785	0	0.9399999999999999	0	44.60088644456208	-10.05200610425715	0	60.1952394055705	1.05060512165344	-5.015359581847184	0	0	44.60088644456208	-10.05200610425715	0	60.1952394055705	1.05060512165344	-5.015359581847184	0	0	2.604843884298079	-4.312693232619062	1.332510305231981	0	-13.21686356698582	0	75.00820539387529	44.96291255933947	0	0	0.9385419206004166	-1.594198853101011	-1.554080109258921	0.3770024177343668	44.96291255933947	0	0
0.05	-3.510592542891721	2.841706281674488	-2.692241945501583	0	0.9399999999999999	0	44.60091715082719	-10.05199208678225	0	60.19522764815974	1.05060491644791	-5.015354178406914	0	0	44.60091715082719	-10.05199208678225	0	60.19522764815974	1.05060491644791	-5.015354178406914	0	0	2.605220291995305	-4.302247104594936	1.34879274270956	0	-13.21693371252599	0	75.00820477613314	44.96292046277971	0	0	0.9404700044010137	-1.605496372854548	-1.570231039087494	0.3275384335981281	44.96292046277971	0	0
0.06666666666666667	-3.536772875020754	2.860794254840163	-2.675795423056145	0	0.9399999999999999	0	44.60094769303341	-10.05197815385134	0	60.1952159483973	1.050604712248534	-5.015348808479513	0	0	44.60094769303341	-10.05197815385134	0	60.1952159483973	1.050604712248534	-5.015348808479513	0	0	2.595844540728155	-4.290338653862096	1.361420410446749	0	-13.21700350703898	0	75.00820416169148	44.96292831965786	0	0	0.9323742396466489	-1.618546288099343	-1.582424492259279	0.2871666632104888	44.96292831965786	0	0
0.08333333333333333	-3.577428940114914	2.878695484577251	-2.66843125388358	0	0.9399999999999999	0	44.60097727974685	-10.05196466590142	0	60.19520460987975	1.05060451435407	-5.015343610937359	0	0	44.60097727974685	-10.05196466590142	0	60.19520460987975	1.05060451435407	-5.015343610937359	0	0	2.578766763337352	-4.280784301266128	1.367823804297421	0	-13.21707114008317	0	75.00820356647223	44.9629359266623	0	0	0.916028928186018	-1.629340418009017	-1.588200113920078	0.2684496849447824	44.9629359266623	0	0
0.1	-3.626181772958251	2.895983691962998	-2.669879900300212	0	0.9399999999999999	0	44.60100563960609	-10.05195174550868	0	60.19519373723936	1.050604324590697	-5.015338632910638	0	0	44.60100563960609	-10.05195174550868	0	60.19519373723936	1.050604324590697	-5.015338632910638	0	0	2.557948902711833	-4.272613721966724	1.368221596784881	0	-13.21713598844422	0	75.00820299593452	44.96294321453529	0	0	0.8954477640308578	-1.638751289989847	-1.58787292925982	0.2624868896098253	44.96294321453529	0	0
0.1166666666666667	-3.67766813636146	2.917804570837727	-2.680469701037471	0	0.9399999999999999	0	44.60103340949853	-10.05193909989734	0	60.19518308797089	1.0506041387259	-5.01533376138635	0	0	44.60103340949853	-10.05193909989734	0	60.19518308797089	1.0506041387259	-5.01533376138635	0	0	2.536656339312728	-4.261904634815419	1.362178077147475	0	-13.2171995012081	0	75.00820243726562	44.96295034814781	0	0	0.8739684492824874	-1.650711714573791	-1.581043159171563	0.2587168819212557	44.96295034814781	0	0
0.1333333333333333	-3.729261311669118	2.943099572316853	-2.696850383143729	0	0.9399999999999999	0	44.60106134854143	-10.05192637983023	0	60.19517237341636	1.050603951721645	-5.015328861567367	0	0	44.60106134854143	-10.05192637983023	0	60.19517237341636	1.050603951721645	-5.015328861567367	0	0	2.516113584454702	-4.24908507941867	1.351992943802761	0	-13.2172634041136	0	75.00820187519383	44.9629575241615	0	0	0.8529829226009082	-1.664780296660524	-1.570057055562242	0.250410781796693	44.9629575241615	0	0
0.15	-3.779180679966891	2.966036199118701	-2.71000388129313	0	0.9399999999999999	0	44.60108900361898	-10.05191378947363	0	60.19516176889402	1.050603766637815	-5.015324011955834	0	0	44.60108900361898	-10.05191378947363	0	60.19516176889402	1.050603766637815	-5.015324011955834	0	0	2.495937691555816	-4.237535415871967	1.343946920775826	0	-13.21732665420344	0	75.00820131883476	44.96296462719636	0	0	0.8324936295827601	-1.677537935571674	-1.561241567901041	0.2444145581478847	44.96296462719636	0	0
0.1666666666666667	-3.828619476898034	2.985458585207082	-2.724166055509913	0	0.9399999999999999	0	44.60111783979227	-10.05190065983167	0	60.19515071399858	1.050603573693491	-5.015318954719963	0	0	44.60111783979227	-10.05190065983167	0	60.19515071399858	1.050603573693491	-5.015318954719963	0	0	2.475877028619524	-4.22832534719127	1.335228591458186	0	-13.21739259640274	0	75.00820073871468	44.96297203447921	0	0	0.8120197337262697	-1.68788287034445	-1.551787324680435	0.2409224772298998	44.96297203447921	0	0
0.1833333333333333	-3.876827905101118	2.998979112313076	-2.734072043842989	0	0.9399999999999999	0	44.60114552991769	-10.05188805388277	0	60.1951400986576	1.050603388420839	-5.015314099555068	0	0	44.60114552991769	-10.05188805388277	0	60.1951400986576	1.050603388420839	-5.015314099555068	0	0	2.455738987594255	-4.223009307478317	1.329565135897319	0	-13.21745591853399	0	75.00820018165054	44.96297914665909	0	0	0.7916007334351589	-1.694249385669738	-1.545441044668629	0.2355817204266143	44.96297914665909	0	0
0.2	-3.923394793085288	3.007180885854488	-2.733425418670562	0	0.9399999999999999	0	44.60117339647428	-10.05187536678242	0	60.19512941768326	1.05060320200267	-5.015309213286609	0	0	44.60117339647428	-10.05187536678242	0	60.19512941768326	1.05060320200267	-5.015309213286609	0	0	2.435648041359685	-4.221074042614266	1.33167115021669	0	-13.21751963710656	0	75.00819962103701	44.96298630469827	0	0	0.7717245933655723	-1.697237691186782	-1.546921750798126	0.2280438767018651	44.96298630469827	0	0
0.2166666666666667	-3.969127745350926	3.014374110429872	-2.722030134894895	0	0.9399999999999999	0	44.60120273474386	-10.05186200953639	0	60.19511817410478	1.050603005765206	-5.015304069124808	0	0	44.60120273474386	-10.05186200953639	0	60.19511817410478	1.050603005765206	-5.015304069124808	0	0	2.415973730646523	-4.219601290857601	1.341686017001476	0	-13.21758671609224	0	75.00819903081587	44.96299384097667	0	5.38806921148701e-36	0.7528420882899733	-1.699854188611995	-1.556342502563242	0.2266408420811529	44.96299384097667	0	5.38806921148701e-36
0.2333333333333333	-4.011129610925586	3.02512614355886	-2.718452399714871	0	0.9399999999999999	0	44.60123058094516	-10.05184933362676	0	60.19510750248291	1.050602819510267	-5.015299187733402	0	0	44.60123058094516	-10.05184933362676	0	60.19510750248291	1.050602819510267	-5.015299187733402	0	0	2.398012494056713	-4.215346995712959	1.345721116773538	0	-13.21765038459482	0	75.00819847061186	44.96300099320414	0	0	0.7352976115066169	-1.705166376387897	-1.55979117040035	0.2244148097631815	44.96300099320414	0	0
0.25	-4.051483168636307	3.03796942671305	-2.726139392053024	0	0.9399999999999999	0	44.60125753016884	-10.051837069114	0	60.19509717383379	1.050602639241333	-5.015294465191036	0	0	44.60125753016884	-10.051837069114	0	60.19509717383379	1.050602639241333	-5.015294465191036	0	0	2.381410299638908	-4.209702476469956	1.341141604028721	0	-13.21771200695908	0	75.00819792845303	44.96300791375496	0	0	0.7185122101704121	-1.711754426235318	-1.554634820650321	0.2244509571886083	44.96300791375496	0	0
0.2666666666666667	-4.090914188926363	3.043338867350522	-2.721918401834554	0	0.9399999999999999	0	44.60128531501584	-10.05182442273535	0	60.19508652738345	1.050602453425721	-5.015289595698297	0	0	44.60128531501584	-10.05182442273535	0	60.19508652738345	1.050602453425721	-5.015289595698297	0	0	2.364508990856913	-4.209212170568658	1.345777670477437	0	-13.217775531058	0	75.00819736948333	44.96301504977807	0	0	0.7019871985813844	-1.713188983839475	-1.558760102925193	0.2183273043004953	44.96301504977807	0	0
0.2833333333333333	-4.133734055984001	3.04380646072743	-2.698323681069922	0	0.9399999999999999	0	44.60131506020679	-10.05181088926318	0	60.19507512749131	1.050602254460069	-5.015284385197237	0	0	44.60131506020679	-10.05181088926318	0	60.19507512749131	1.050602254460069	-5.015284385197237	0	0	2.347112433443526	-4.212306966861777	1.364807086293901	0	-13.21784354836035	0	75.00819677107582	44.96302268701048	0	5.981958496866791e-52	0.6859442641941536	-1.71117950815949	-1.577327736432217	0.2190952055923798	44.96302268701048	0	5.981958496866791e-52
0.3	-4.176582340731726	3.04403418198291	-2.665797788776193	0	0.9399999999999999	0	44.6013450049544	-10.05179727033536	0	60.19506364892643	1.050602054121318	-5.015279142405166	0	0	44.6013450049544	-10.05179727033536	0	60.19506364892643	1.050602054121318	-5.015279142405166	0	0	2.330777094744917	-4.215479734699065	1.389927705850252	0	-13.21791203299253	0	75.00819616865367	44.96303037315355	0	-5.184374847838835e-85	0.6714114979253654	-1.709145235854844	-1.602029611432568	0.2179123500866478	44.96303037315355	0	-5.184374847838835e-85
0.3166666666666667	-4.215778584653834	3.048522332630677	-2.645082868343398	0	0.9399999999999999	0	44.60137463861529	-10.05178378936964	0	60.19505229376019	1.05060185593628	-5.015273952721979	0	0	44.60137463861529	-10.05178378936964	0	60.19505229376019	1.05060185593628	-5.015273952721979	0	0	2.314774324847434	-4.215375122773397	1.406887951919227	0	-13.21797979023487	0	75.00819557248987	44.96303798127654	0	0	0.6566905075409637	-1.710335461398856	-1.618532513325441	0.2130774883777579	44.96303798127654	0	0
